<svg width="44" height="24" viewBox="0 0 44 24" fill="none" xmlns="http://www.w3.org/2000/svg">
<g clip-path="url(#clip0_414_221)">
<path d="M0.00170898 23.1914H43.9985V0.191406H0.00170898V23.1914Z" fill="black"/>
<path d="M0.510986 22.7789H43.5294V0.610107H0.510986V22.7789Z" fill="white"/>
<path d="M9.99998 12.89L10.8322 13.6756L11.6922 12.8952H12.3812V13.1363L11.3035 14.1175L12.3812 15.1665V12.8952H14.3263C14.6942 12.8952 15.2336 13.0352 15.2336 13.6632C15.2336 14.5442 14.5238 14.5547 14.1351 14.5547H13.125V15.4077H11.6852L10.8056 14.5718L9.90468 15.4015H7.04183V12.8895H9.99998V12.89V12.89ZM18.8126 12.89H21.266V13.4316H19.5634V13.902H21.2186V14.3786H19.5634V14.876H21.266V15.402H18.8126V12.89V12.89ZM16.3396 15.4081H15.5888V12.8957H17.5403C17.9094 12.8957 18.4413 13.0305 18.4413 13.5683C18.4413 13.8721 18.3321 14.0957 17.9226 14.2642C18.2772 14.2979 18.4141 14.4887 18.4141 14.8922L18.4413 15.4081H17.7107L17.6905 14.9477C17.6841 14.7351 17.5813 14.5219 17.3226 14.5219H16.3396V15.4081V15.4081ZM25.9776 13.8692C26.901 13.9072 26.9773 14.2865 26.9773 14.69C26.9773 15.1608 26.5066 15.4134 26.0151 15.4134H24.439V14.8756H25.6674C25.8759 14.8756 26.186 14.8756 26.186 14.6335C26.186 14.5186 26.1312 14.446 25.9094 14.426C25.7371 14.4123 25.5643 14.4025 25.3914 14.3966C24.558 14.3786 24.3645 14.0382 24.3645 13.6234C24.3645 13.1525 24.767 12.8947 25.2585 12.8947H26.8346V13.4335H25.6813C25.4191 13.4363 25.1355 13.4079 25.1355 13.6523C25.1355 13.8061 25.2758 13.837 25.4526 13.8517C25.5138 13.8522 25.9233 13.8692 25.9776 13.8692V13.8692ZM23.1661 13.8692C24.089 13.9072 24.1658 14.2865 24.1658 14.69C24.1658 15.1608 23.6945 15.4134 23.2036 15.4134H21.627V14.8756H22.8554C23.0633 14.8756 23.3746 14.8756 23.3746 14.6335C23.3746 14.5186 23.3197 14.446 23.0979 14.426C22.9986 14.4146 22.6336 14.3976 22.5799 14.3966C21.7465 14.3786 21.553 14.0382 21.553 13.6234C21.553 13.1525 21.9556 12.8947 22.4465 12.8947H24.0232V13.4335H22.8698C22.607 13.4363 22.324 13.4079 22.324 13.6523C22.324 13.8061 22.4638 13.837 22.6417 13.8517C22.7023 13.8522 23.1118 13.8692 23.1661 13.8692V13.8692ZM13.2752 11.0895H12.5244V8.57707H14.4759C14.8444 8.57707 15.3774 8.71188 15.3774 9.24968C15.3774 9.553 15.2683 9.77752 14.8588 9.94556C15.2134 9.97926 15.3503 10.1701 15.3503 10.5736L15.3774 11.0895H14.6474L14.6266 10.6296C14.6197 10.4164 14.5181 10.2038 14.2582 10.2038H13.2758V11.0895H13.2752V11.0895ZM15.7598 11.0895H16.51V8.57422H15.7598V11.0895ZM9.64133 8.57707H12.0941V9.1182H10.3933V9.58955H12.0473V10.0666H10.3933V10.5626H12.0941V11.0895H9.64133V8.57707V8.57707ZM4.16338 11.0895H5.6748V9.225L6.6774 11.0895H7.36005L8.38634 9.25586V11.0895H9.13656V8.57707H7.93932L7.01815 10.2626L6.10044 8.57707H4.92342V10.997L3.61299 8.57707H2.62078L1.2832 11.0895H2.07501L2.36782 10.5289H3.86537L4.16338 11.0895V11.0895ZM20.8288 10.5304H19.3318L19.0384 11.091H18.0485C17.2163 11.091 16.8473 10.5175 16.8652 9.82214C16.8906 8.7902 17.6327 8.57564 17.974 8.57564H18.9535V9.12247H18.4898C17.9914 9.12247 17.6027 9.16519 17.6027 9.75379V9.93607C17.6061 10.3789 17.8886 10.4838 18.0693 10.5147C18.1138 10.5232 18.1958 10.5266 18.2258 10.5247L18.5504 10.5232L19.5842 8.57707H20.5776L21.8568 10.9353V8.57564H22.9651L24.2311 10.3153V8.57564H24.9813V11.091H23.9579L22.607 9.25111V11.091H21.1262L20.8288 10.5304V10.5304Z" fill="#00ACEC"/>
<path d="M26.841 12.5036V1.32019H1.3479V9.96786L2.30372 8.19636H3.92776L4.46025 9.25014V8.19636H6.43832L7.03896 9.2397L7.62573 8.19636H14.5995C14.8721 8.19636 15.2406 8.27516 15.4052 8.52152V8.19636H16.8652V8.57753C17.0563 8.36487 17.3428 8.19636 17.9019 8.19636H20.8773L21.4231 9.21644V8.19636H23.184L23.8112 9.08258V8.19636H25.4214V11.4707H23.6888L22.9651 10.5066V11.4707H20.7682L20.4136 10.8313H19.7171L19.3896 11.4707H18.011C17.7107 11.4488 17.0153 11.3473 16.8652 10.9666V11.4707H14.2177V10.7534C14.2177 10.6519 14.1086 10.5289 13.9584 10.5289H13.672V11.4707H8.03521V10.7307L7.61245 11.4707H6.46604L6.02942 10.7193V11.4707H3.7776L3.47728 10.8878H2.75363L2.44002 11.4707H1.3479V22.0479H26.841V15.5652C26.7047 15.6891 26.4864 15.7898 26.1589 15.7898H24.029V15.5429C23.8655 15.6891 23.6339 15.7898 23.2649 15.7898H17.2608V15.1058C17.2469 15.0156 17.3018 14.8252 17.0015 14.8252H16.756V15.7898H15.1591V14.6786C14.9951 14.904 14.6411 14.9145 14.4089 14.9259H13.5622V15.7898H11.4334L10.8189 15.1727L10.164 15.7898H6.54805V12.5036H10.2189L10.8599 13.0979L11.5154 12.5036H14.4222C14.6266 12.514 15.0153 12.5928 15.1591 12.7722V12.5036H17.6431C17.8614 12.5036 18.2842 12.5814 18.4621 12.8169V12.5036H21.5733V12.7946C21.7367 12.6156 21.9966 12.5036 22.3916 12.5036H24.3841V12.7841C24.5343 12.6042 24.9305 12.5036 25.1627 12.5036H26.841V12.5036ZM33.8569 12.2178C33.8569 12.6379 31.9112 12.1746 31.9112 13.1961C31.9112 13.6627 32.3703 13.874 32.8866 13.874C33.2938 13.874 33.6063 13.8047 33.9147 13.5688L34.0256 13.8089H35.0068C34.9508 13.7216 34.9421 13.6077 34.9421 13.4795V12.4286C34.9421 11.8922 34.8636 11.4977 33.5699 11.4977C32.4899 11.4977 32.0775 11.7764 32.0775 12.252H33.1211C33.1471 12.0593 33.351 12.0341 33.5023 12.0341C33.6178 12.0341 33.8569 12.0555 33.8569 12.2178V12.2178ZM39.5029 13.5061V13.8066H40.4778V10.7183H39.3938V11.7863C39.1633 11.5632 38.9236 11.4949 38.5794 11.4949C37.9268 11.4949 37.4209 11.9791 37.4209 12.7257C37.4209 13.3604 37.8385 13.8707 38.6626 13.8707C39.0132 13.8707 39.2476 13.7809 39.5029 13.5061V13.5061ZM37.1396 12.2681V11.5077C37.0929 11.5034 37.0455 11.4949 36.9981 11.4949C36.5765 11.4949 36.3097 11.662 36.1584 12.0142H36.148V11.5594H35.1621V13.8061H36.2468V12.9213C36.2468 12.4367 36.4714 12.2648 36.915 12.2648L37.1396 12.2681V12.2681ZM30.6626 11.8931C30.6256 11.5723 30.3801 11.3876 29.9943 11.3876C29.5612 11.3876 29.3001 11.6924 29.3001 12.2881C29.3001 12.7215 29.4151 13.1283 30.0405 13.1283C30.4379 13.1283 30.6256 12.9018 30.6729 12.6056H31.8569C31.7483 13.4031 31.0535 13.8825 30.0631 13.8825C28.8214 13.8825 28.0694 13.2578 28.0694 12.2534C28.0694 11.2542 28.8936 10.6324 29.9429 10.6324C31.0905 10.6324 31.7327 11.1 31.8321 11.8927H30.6626V11.8931V11.8931Z" fill="#00ACEC"/>
<path d="M13.1254 14.0396H14.0605C14.3671 14.0396 14.4763 13.8934 14.4763 13.7254C14.4763 13.602 14.3775 13.4372 14.0634 13.4372H13.1254V14.0396ZM9.49504 13.4316H7.79304V13.902H9.44711V14.3785H7.79304V14.876H9.52277L10.3486 14.1179L9.61806 13.4339L9.49504 13.4316ZM16.3394 14.0064H17.2745C17.5811 14.0064 17.6903 13.8939 17.6903 13.7254C17.6903 13.602 17.5915 13.4372 17.2774 13.4372H16.3394V14.0064V14.0064ZM13.275 9.68778H14.2101C14.5173 9.68778 14.6259 9.57575 14.6259 9.40724C14.6259 9.2843 14.5271 9.11816 14.2129 9.11816H13.275V9.68778V9.68778ZM3.57529 9.98825H2.66162L3.10979 9.10962L3.57529 9.98825ZM20.0721 9.11104L19.6251 9.9892H20.5422L20.0721 9.11104Z" fill="white"/>
<path d="M42.4969 14.4949L33.3135 22.0422H34.6176L42.4969 15.5667V14.4949Z" fill="#3B4095"/>
<path d="M42.4968 16.6067L35.884 22.0422H37.187L42.4968 17.679V16.6067Z" fill="#00ACEC"/>
<path d="M42.4969 18.719L38.4524 22.0422H39.7576L42.4969 19.7903V18.719Z" fill="#6CB35E"/>
<path d="M27.7737 20.8536C27.7741 20.6969 27.812 20.5417 27.8854 20.3971C27.9587 20.2524 28.0661 20.121 28.2012 20.0105C28.3364 19.8999 28.4967 19.8123 28.6731 19.7527C28.8495 19.6931 29.0384 19.6627 29.2291 19.6631C29.4193 19.663 29.6078 19.6937 29.7836 19.7535C29.9594 19.8132 30.1191 19.9009 30.2536 20.0115C30.3882 20.1221 30.4949 20.2534 30.5676 20.3979C30.6403 20.5423 30.6777 20.6972 30.6775 20.8536C30.6784 21.0104 30.6415 21.1658 30.5691 21.3109C30.4967 21.456 30.3902 21.5879 30.2556 21.6991C30.121 21.8103 29.9611 21.8985 29.7849 21.9588C29.6088 22.019 29.4199 22.0501 29.2291 22.0502C29.0378 22.0504 28.8484 22.0196 28.6717 21.9595C28.495 21.8994 28.3344 21.8113 28.1992 21.7001C28.064 21.589 27.9569 21.457 27.8838 21.3117C27.8108 21.1664 27.7734 21.0108 27.7737 20.8536V20.8536Z" fill="#00ACEC"/>
<path d="M30.5026 20.8536C30.5026 20.7161 30.4697 20.58 30.4058 20.453C30.3418 20.326 30.248 20.2107 30.1297 20.1135C30.0114 20.0163 29.871 19.9393 29.7165 19.8867C29.5619 19.8342 29.3963 19.8073 29.2291 19.8074C29.0616 19.807 28.8957 19.8338 28.7408 19.8862C28.5859 19.9386 28.4452 20.0156 28.3266 20.1128C28.208 20.2099 28.1138 20.3254 28.0496 20.4525C27.9853 20.5796 27.9522 20.7159 27.9521 20.8536C27.9521 21.1315 28.0865 21.3981 28.3256 21.5947C28.5648 21.7912 28.8891 21.9017 29.2274 21.9017C29.5656 21.9017 29.8899 21.7912 30.1291 21.5947C30.3682 21.3981 30.5026 21.1315 30.5026 20.8536V20.8536Z" fill="white"/>
<path d="M29.9509 21.5224H29.7158L29.2509 20.9068H28.8871V21.5224H28.689V20.1876H29.3959C29.5327 20.1876 29.6696 20.1943 29.7915 20.2536C29.9133 20.3101 29.9734 20.4288 29.9734 20.5408C29.9734 20.8038 29.7499 20.9006 29.4606 20.9068L29.9509 21.5224V21.5224Z" fill="#00ACEC"/>
<path d="M29.1915 20.7786C29.4196 20.7786 29.7731 20.8099 29.7731 20.5375C29.7731 20.3315 29.5524 20.3068 29.3509 20.3068H28.8877V20.7786H29.1915ZM33.8568 12.814C33.8597 13.2346 33.7026 13.3675 33.322 13.3675C33.1078 13.3675 32.9772 13.2901 32.9772 13.179C32.9778 12.8866 33.5028 12.9555 33.8568 12.814V12.814ZM39.4301 12.7044C39.4301 12.9654 39.3105 13.227 38.9345 13.227C38.5805 13.227 38.5077 12.9531 38.5077 12.7167C38.5077 12.4689 38.6065 12.1851 38.9669 12.1851C39.3261 12.1851 39.4301 12.4551 39.4301 12.7044Z" fill="white"/>
</g>
<defs>
<clipPath id="clip0_414_221">
<rect width="44" height="23" fill="white" transform="translate(0 0.191406)"/>
</clipPath>
</defs>
</svg>
